<?xml version="1.0" encoding="utf-8"?>
<!-- Generator: Adobe Illustrator 27.9.0, SVG Export Plug-In . SVG Version: 6.00 Build 0)  -->
<svg version="1.1" id="Layer_1" xmlns="http://www.w3.org/2000/svg" xmlns:xlink="http://www.w3.org/1999/xlink" x="0px" y="0px"
	 viewBox="0 0 1000 1000" style="enable-background:new 0 0 1000 1000;" xml:space="preserve">
<g>
	<path d="M658.5,277.6c-3,1.6-6.3,1.3-9.6,1.1c-26-1.8-51.9-1.9-77.4,4.1c-14.5,3.4-28.4,8.3-41.6,15.2c-0.7,0.4-1.3,0.9-2,1.4
		c5.1,2.8,5.1,2.8,1,6.9c-5.6,5.5-9.3,12-10.7,19.8c-0.2,1.3-0.3,3-1.9,3.1c-1.9,0.1-1.8-1.7-1.8-2.9c-0.2-4.3-2.6-5.7-6.6-5.5
		c-4.3,0.2-8.6,0.2-13,0.5c-3.2,0.2-4.7,1.9-4.7,5.2c0.1,8.8,0.1,17.6,0,26.5c0,3.6,1.6,5.2,5.1,5.1c3.2-0.1,6.3,0,9.5,0
		c4.2-0.1,7.4-1.6,8.9-5.8c0.4-1.2,0.6-2.8,2.4-2.7c1.7,0.2,1.9,1.7,1.9,3c0,12,0,24,0,35.9c0,1.4-0.3,2.8-2,3
		c-1.6,0.1-1.8-1.4-2.1-2.4c-1.5-5.1-5.2-6.4-10-6.3c-15.7,0.2-13.6-1.6-13.7,13.4c-0.1,9.6,0.1,19.3-0.1,28.9
		c-0.1,4,1.6,5.8,5.6,5.8c8.2,0,16.3,0,24.5,0c3.7,0,5.5-1.7,5.3-5.5c-0.1-3,0-6,0-9c0-1.2,0.3-2.6,1.7-2.7c1.8-0.1,1.9,1.6,2.1,2.8
		c1.4,8,4.5,15.3,8.5,22.2c1.8,3.2,3.9,6.1,5.8,9.2c1,1.7,1.1,3.1-1,4c-5.1,2.1-4.8,6.5-4.1,10.6c1.9,12.7,11.4,20.8,24.5,21.2
		c11.9,0.4,23.1-2.8,33.9-7.3c27.3-11.4,52.3-27,75.2-45.7c8.1-6.6,16-13.5,24.1-20.2c2.2-1.9,3.3-3.9,3.3-6.9
		c-0.1-17.5-0.1-34.9,0-52.4c0-4.7-1.8-4.6-5.5-3.6c-22.7,5.7-42.7,17.6-63.2,28.2c-7.6,3.9-7,4-3.3,11.8
		c13.1,27.6,5.5,54.1-26.8,63.7c-11.7,3.5-24.1,2-35.7-2.9c-7.4-3.2-10.4-10.2-13.6-16.6c-4.1-8.3-7.7-16.9-10.4-25.8
		c-0.5-1.5-1.7-3.5,0.5-4.3c1.6-0.5,2.5,1.3,3,2.7c2,5,5,9.3,7.9,13.8c9,13.4,34.6,11.8,43.1,4.2c7.3-6.5,7.7-17.4,0.8-25.5
		c-6.4-7.5-15.4-10.8-23.6-15.6c-11.4-6.6-21.4-14.8-24.8-28c-5-19.4,1.4-37.8,18.7-50.3c0.9-0.7,2.1-1.8,3.1-1
		c1.6,1.1,0.6,2.8,0.2,4.1c-2.4,7.9-4,15.8-2,24c0.2,0.6,0.4,1.2,0.6,1.9c1.8,0.1,1.7-1.3,2.1-2.3c3.3-7.4,6.7-14.8,11.1-21.7
		c3.2-5.1,7.3-7.7,13.5-7.5c10.3,0.3,20.7-0.3,31,0.1c16.7,0.8,31.7-4.9,46.6-11c4.9-2,5.2-3.1,3.9-7.8c2.6,0.1,4.6,1,5.3,3.5
		c0.8,3-1.1,4.7-3.3,6c-7.9,4.5-16.6,6.8-25.2,9.3c-5.7,1.7-11.6,2.9-17.4,4.3c-2.3,0.5-3.8,1.9-5.3,3.5
		c-4.6,5.1-8.3,10.8-10.9,17.2c-1.2,2.9-2.7,4-6.4,3.7c-7.9-0.8-15.9-1.2-23.8,0.5c-2.5,0.5-4.9,1.3-6.9,2.7
		c-11.1,7.6-10.5,11.4-2.8,19c8.2,8.1,18.7,12.6,28.3,18.5c2.8,1.7,6,3.2,8.3,5.4c3.5,3.4,6.5,2.7,10.2,0.4
		c13.8-8.7,28.1-16.5,42.9-23.4c8-3.8,16.5-6,25-8.6c3.6-1.1,5.2-3,4.8-6.8c-0.3-2.8-0.1-5.7,0-8.5c0.1-3.3-1.2-3.4-3.4-1.6
		c-5.5,4.1-11,8-18,9.3c-3.3,0.6-6.6,0.7-9.9,0.6c-1.2,0-3,0.3-3.1-1.6c-0.1-1.4,1.2-1.8,2.4-2.1c10.8-2.7,19.3-9.4,27.8-16.2
		c2.9-2.4,4.4-5,4.3-8.9c-0.2-11.8-0.3-23.6,0-35.4c0.1-5.1-0.9-9.1-5-12.2c-1.2-0.9-2.2-2.1-3.2-3.2c-3.5-3.7-3.4-5.2,1.4-6.3
		c9-2.1,15.1-8.1,21-14.5c9.2-9.8,17.8-20.2,26.1-30.8c1-1.3,1.9-3.8,4.1-3c2.1,0.8,1.2,3.2,1.2,4.9c0.1,16.8,0,33.6,0.1,50.4
		c0,1.1,0.2,2.2,0.3,3.7c3.1-1.6,4.4-4.2,6.2-6.3c9.3-10.7,18.2-21.6,25.7-33.6c1.5-2.4,3.2-3.4,6.1-3.4c33.8,0.1,67.6,0,101.4,0.1
		c1.4,0,3.3-0.6,4.1,1c1,1.8-0.7,3.1-1.6,4.4c-19.4,27.1-29.7,57.7-34.4,90.4c-1.1,8.1-1.9,16.2-3,24.2c-0.6,5,1,8.2,5.4,11.1
		c21.7,14.2,36.6,33.7,43.8,58.7c6.1,21,6.5,42.4,2.3,63.7c-6.5,33-23.5,60.5-45.7,85.1c-27.7,30.7-61.3,52.8-99.4,68.6
		c-3.1,1.3-6.1,2.6-9.2,3.7c-1.8,0.7-3.2,1.7-4.1,3.4c-10.8,20.5-27.1,36.5-43.3,52.5c-13.5,13.3-27.8,25.8-42.3,38
		c-32.6,27.5-68.6,48.8-109.3,62.4c-31,10.4-62.5,13.5-94.9,11.6c-12.9-0.8-25.4-2.8-37.5-7.3c-0.9-0.3-2-0.5-2.6-2.1
		c7.8,1.3,14.9,3.9,22.4,4.9c16.7,2.3,33.5,2.5,50.3,1.3c11.4-0.8,22.9-1.4,34.2-4c21.5-4.9,42.1-12.4,61.9-21.8
		c20.8-9.9,40.4-21.7,58.2-36.4c22.2-18.4,36.1-42.3,46.2-68.7c1.7-4.5,3-9.1,4.5-13.7c0.9-2.7,0.2-3.7-2.8-3.1
		c-24.6,5.3-49.7,7.1-74.6,9.7c-7.1,0.7-14.3,1-21.4,1.3c-6.5,0.3-6.8,0.5-6.9,6.8c0,1,0.1,2,0,3c-0.2,3.3,0.6,5.6,4.5,5.5
		c1.9,0,3.5,1.3,1.3,2.5c-13.3,7.6-18.1,22.3-27.7,33c-1.5,1.6-2.9,3.2-4.4,4.7c-1.2,1.1-2.3,2.9-4.1,2.3c-2.1-0.7-1.3-2.9-1.3-4.4
		c0-14.6-0.2-29.3,0.1-43.9c0.1-4.8-1-6.1-6.1-5.8c-16.5,1-32.7,3.6-48.9,6.2c-3,0.5-5.9,1-7.1,4.5c-0.8,2.3-2.4,2.7-4.1,0.7
		c-1.6-1.8-3.3-2.6-5.7-2.1c-21.2,4.6-42,10.3-60.7,21.9c-22.4,14-35.6,33.5-35.5,60.7c0,2.3,0.5,4.6,0.9,6.9
		c0.3,2.1,0.7,4.2,0.8,6.4c-4.1-5.2-5.2-11.5-5.3-17.8c-0.7-23.9,9.1-42.4,28.8-55.9c17.9-12.2,38.3-18.3,59.2-22.9
		c2.6-0.6,5.2-0.8,7.9-1.3c3.5-0.7,4.6-2,1.8-5.2c-9.9-11-20.2-21.7-31.4-31.4c-4-3.4-6.3-6-2.7-11.4c3.2-4.8,3.1-10.8,2.7-16.5
		c-0.5-7.2,2.6-15-3.1-21.6c-0.7-0.8-0.6-2.1,0.2-2.8c4-3.6,2.7-8.2,2.7-12.6c0-6.8-0.4-13.7-2.1-20.2c-1-4.1-0.1-6.1,3.5-7.9
		c1.5-0.7,3.9-1.4,3.3-3.8c-0.5-1.9-2.8-1.5-4.3-2c-1.6-0.5-3.3-0.4-4.9-0.7c-2.6-0.5-5.2-1.7-5-4.6c0.1-2.9,3.2-2.5,5.2-2.6
		c12.5-0.7,23.6-5.4,33.5-12.7c7.7-5.7,15.2-11.9,21.9-18.8c4.3-4.4,4.4-4.4,8.1,0.7c4.7,6.3,9.2,12.6,13.9,18.9
		c2.4,3.2,3.5,6.5,3.5,10.6c-0.2,15.1,0,30.3-0.1,45.4c0,3.5,0.4,6.5,3.4,8.8c2.8,2.2,2.4,4.6-0.2,6.6c-2.8,2.2-3.2,5.1-3.3,8.4
		c-0.3,10.7,0,21.3,5.8,30.9c1.6,2.6,0,4.2-2,5.8c-10.3,8.7-20.2,17.8-28.5,28.6c-1.4,1.8-4.1,3.8-2.8,5.8c1.1,1.7,4.3,0.6,6.6,0.2
		c14.3-2.5,28.7-3.7,43.1-4.5c6.4-0.4,7.2-1,7.2-7.3c0-24.5-0.2-48.9,0.1-73.4c0.1-6.1-0.9-11.1-6.1-14.8c-4.1-2.9-4.1-6.2,0-9.1
		c5-3.6,6.3-8.3,6-14.3c-0.4-11.5-0.2-23-0.1-34.4c0-5-1.4-8.8-6.8-10.1c-1.2-0.3-2.4-0.8-2.3-2.3c0.1-1.7,1.6-1.9,3-2
		c1-0.1,2-0.1,3-0.1c26,0,51.9,0,77.9,0c1.9,0,4.5-0.8,5.4,1.3c1,2.3-1.6,3.4-2.9,4.7c-5.3,5.7-9.5,11.9-10.8,19.8
		c-0.3,1.6-0.2,3.8-2.5,3.6c-1.9-0.1-1.9-2.1-1.9-3.6c0.2-3.6-1.7-4.5-5-4.4c-6.8,0.2-13.6,0.1-20.5,0c-3.6-0.1-5.1,1.6-5.1,5.1
		c0,7.8,0,15.6,0,23.5c0,3.3,1.5,5,4.8,4.9c3.5,0,7,0,10.5,0c4.5,0,7.7-1.8,8.9-6.3c0.3-1.2,0.7-2.5,2.1-2.3
		c1.4,0.2,1.6,1.6,1.6,2.8c0,12.3,0,24.6,0,36.9c0,1.1,0.1,2.6-1.4,2.8c-1.5,0.2-1.9-0.9-2.2-2.1c-1.2-4.8-4.5-6.5-9.3-6.4
		c-17.6,0.3-14.9-2.3-15,14.5c-0.2,21,0.1,41.9-0.1,62.9c0,4.3,0.9,5.8,5.6,5.3c32.6-3.2,65.2-6.2,97.2-13.6
		c3.9-0.9,5.7-2.7,6.6-6.8c5-22.1,4.9-44.6,5.7-66.9c0.5-14.8-0.2-29.6,0.3-44.4c0.2-6.8-1.6-11.9-6.7-16.7c-7-6.4-7.9-5.5,0-12.8
		c4.6-4.3,6.3-8.8,5.9-14.9c-0.5-8.8-0.2-17.6-0.2-26.4c0-6.3-0.6-6.8-7-5.7c-14.7,2.4-28.8,6.8-42.7,12
		c-20.4,7.7-40.4,16.1-60.9,23.6c-10.8,3.9-22.1,6.4-33.8,3.2c-13-3.5-20.5-14.8-18-28.1c0.9-4.8-1.1-5.4-4.9-5.4
		c-24.8,0.1-49.6,0-74.4,0c-1.2,0-2.3,0.1-3.5,0c-1.9-0.2-4.6,0.5-5.1-2c-0.5-2.5,2.5-2.1,3.9-2.9c3.1-1.6,4.6-4.1,4.8-7.6
		c1-21,0.4-41.9,0.6-62.9c0-4.1-3.5-4.9-5.9-6.7c-4.3-3.2-4.5-3.9,0.1-6.4c3.8-2.1,5-4.8,5.3-9.1c0.8-13.1,0.1-26.3,0.5-39.4
		c0.2-5.3-1.3-9.5-7-11.2c-1.1-0.3-2.6-0.7-2.2-2.1c0.2-0.6,1.6-1,2.5-1.2c1.6-0.2,3.3-0.2,5-0.2c18.1,0,36.3,0,54.4,0
		c4.3,0,8-1,11.8-3.1c34-18.9,70.5-26.1,109.2-22.4c4.5,0.4,9,0.6,13.4,1C650,276.4,654.2,277,658.5,277.6z M745.6,566.6
		C745.5,566.6,745.5,566.6,745.6,566.6c-0.1,13.3-0.1,26.6-0.1,39.9c0,4,0,8-0.1,12c-0.1,3.6,1.4,4.5,4.6,3.1c3-1.4,6.1-2.6,9.1-4
		c42.6-19.3,80.1-45.3,109.3-82.4c13.4-17.1,26.1-35.2,28.1-57.5c1.8-19.8,1.8-39.8-2.3-59.6c-5.4-26-17.8-47.4-39.5-63
		c-1.2-0.9-2.5-2.3-3.9-1.7c-1.7,0.7-0.9,2.6-1,4c-0.6,14.2,1,28.2,3.3,42.2c1.6,9.5,3.3,19.2,10.8,26.2c3.5,3.2,2,4.4-1.1,5.9
		c-6.6,3.2-12.8,7-18.9,11.2c-14.6,10.1-27.7,21.7-37.8,36.5c-2,3-3.6,3.7-5.5-0.3c-1.4-3.1-3.3-6.2-5.4-8.9
		c-11.3-14.7-27.3-21-44.8-24.8c-4.9-1.1-5.8,0.6-5.6,4.9c0.4,9.1,0.9,18.3,0.5,27.4c-0.3,7.4,1.6,13,7.4,17.8c5,4.2,5,5,0,9.1
		c-5.8,4.9-7.5,10.6-7.2,17.9C745.9,537.3,745.6,552,745.6,566.6z M803.1,413.6c1.2-2.4,0.8-4.3,0.7-6c-1.1-22.1-2.2-44.2-1.8-66.3
		c0.1-5-2-6.1-6.3-6.6c-15.3-1.7-30.6,0.1-45.8,1.3c-3.9,0.3-5.4,2-5.3,6.1c0.2,13.6,0.2,27.3,0,40.9c-0.1,4.4,1.7,6,5.8,6.1
		c5.5,0.1,10.8,1.5,16,3.2C780,396.7,791.8,404.3,803.1,413.6z M744.7,309.9c0,7.8,0.1,13.1,0,18.4c0,2.9,1.1,3.8,3.9,3.5
		c16-1.7,32.1-3.5,48.2-1.7c3.9,0.4,5.1-1.2,5.4-5c1.2-17.3,4.1-34.3,9.8-50.7c1.2-3.5-0.7-3.6-3.2-3.7c-10.1-0.3-20.4,0.1-30.3-2
		c-8.8-1.8-14.7,0.9-19.2,8.1c-0.8,1.2-1.8,2.4-2.9,3.4C746.3,288.6,741.8,299.1,744.7,309.9z M495.5,558.7
		C495.5,558.7,495.5,558.7,495.5,558.7c-0.1-4.8,0.2-9.7-0.1-14.5c-0.3-4.5-2.6-5.5-6.2-3.1c-2.5,1.6-4.9,3.5-7.4,5.1
		c-2.8,1.8-3.9,4.2-3.7,7.5c0.2,4.8,0.1,9.6,0,14.5c-0.1,3.9-0.1,7.6,3.4,10.4c1.5,1.1,2,3,0.3,4.3c-4.2,3.3-3.8,7.8-3.7,12.3
		c0.1,5.3,0,10.6,0,16c0,2.2,0,4.3-2.2,5.7c-1.3,0.8-2,2.2-0.4,3.1c3.3,2,4.6,6.4,8.7,7.4c0.2,0.1,0.7-0.7,1-1
		c10.4-10.9,10.4-10.9,10.4-26.5c0-2.7-0.1-5.3,0-8c0.1-3.1-0.4-5.9-3.1-8c-2.3-1.8-2.5-3.9-0.1-5.7c2.8-2.2,3.3-5.2,3.2-8.5
		C495.4,566,495.5,562.4,495.5,558.7z"/>
	<path d="M366.4,509.4c-7.2,20.6-17.4,39.4-32.1,55.7c-21.4,23.8-48,38.1-79.6,42.9c-20.5,3.1-40.9,1.4-60.8-4
		c-24.7-6.6-47.6-17.1-66.9-34.3c-24.6-22-34.9-49.6-29.8-82.4c7.6-49,35.4-83.9,76.8-109.1c18.3-11.1,38-18.3,59.3-20.8
		c6.2-0.7,12.6-0.4,19-0.3c3.2,0.1,4.6-1.1,4.5-4.3c-0.1-6.2,1.4-12.8-4.8-17.4c-2-1.5-1.2-3.4,0.5-4.6c4.1-3.1,4.5-7.3,4.4-12
		c-0.2-13.5-0.2-27,0-40.4c0.1-4.5-1.1-8.4-3.5-12.2c-9.1-14.6-16.6-29.9-20.6-46.8c-0.2-0.6-0.3-1.3-0.4-1.9
		c-0.4-2.4-2.2-5.6,0.1-6.9c2.3-1.4,3.7,2.1,5.2,3.6c11.8,11.5,23.3,23.3,36.9,32.7c3,2.1,6.1,4.3,9.5,5.3c4.6,1.4,5.2,4.1,5.1,8.2
		c-0.2,20.3,0,40.6-0.1,60.9c0,3.5,0.4,6.5,3.5,8.8c3,2.2,2.8,4.6-0.1,6.8c-2.8,2.1-3.4,4.9-3.4,8.3c0,19.1,0,38.3-0.3,57.4
		c0,3.7,1,5.4,4.9,5.7c10.9,0.9,21.1,4,31,8.8c1.9,0.9,4.1,1.4,6.2,1.9c10.8,2.5,15.8-1.1,16.5-12.3c0.9-15.2-6.6-25.9-19-33.8
		c-3.7-2.4-8.2-3.6-11.8-6.7c0.7-0.4,1.1-0.9,1.4-0.9c21.2,4.2,38.8,13.6,48.9,33.8c3,6.1,4.2,12.5,4.3,19.3
		c0,10.6,1.1,20.9,7.1,30.1c2.6,4-1.2,3.7-3.2,3.6c-7.6-0.2-15.3-0.5-22.9-1.1c-18.6-1.5-36.7-5.4-55-8.8c-22.9-4.3-45.7-2.4-67,8.5
		c-0.6,0.3-1.2,0.6-1.8,0.9c-1,0.4-2.2,1.4-3.1,0c-0.6-1,0.2-1.9,0.8-2.7c4.5-5.4,8.8-10.8,13.5-16c4.2-4.7,8.9-9,14.1-12.7
		c2.4-1.7,3.4-3.8,3.4-6.7c-0.1-16.5-0.1-32.9-0.1-49.4c0-3.2-0.4-5.2-4.7-5c-51.6,3-93,25.8-123.6,66.5
		c-20.1,26.7-30.1,57.8-26.9,91.8c2.3,23.8,13.8,42.8,34.1,55.9c24.3,15.8,51,24.6,79.8,27.4c32.1,3.1,62.2-2.7,90-19.3
		c20.8-12.4,36.7-29.6,48.8-50.3C358.6,524,362.4,516.7,366.4,509.4z"/>
	<path d="M447.1,368.9c-4.2,6.3-8.5,12.6-12.7,19c-1.8,2.8-3.6,5.6-5.5,8.3c-1.9,2.7-3.7,5.2-1,8.5c0.8,0.9,0.6,2.2,0.1,3.3
		c-5.6,11.5-6.7,23.8-7.2,36.3c-0.1,2.3,0.8,5.7-2.2,6.6c-2.5,0.8-4.6-1.6-6.4-3.2c-10.2-8.9-14.6-21.1-18.9-33.4
		c-4-11.7-2.6-23.7-2.8-35.6c0-3.6-0.4-6.9-3.5-9.4c-2.2-1.7-2-3.8,0.1-5.4c3.2-2.5,3.5-5.7,3.4-9.4c-0.1-13.5-0.1-26.9,0-40.4
		c0-4.7-1-8.6-6.2-10.1c-0.9-0.3-2.2-0.6-1.9-1.9c0.2-1.5,1.7-1.4,2.8-1.5c4.2-0.2,8.3-0.2,12.5-0.2c9.8,0,19.6,0,29.4,0.1
		c1.4,0,3.5-0.2,3.9,1.4c0.4,1.8-1.8,2.1-3.1,2.6c-3.7,1.4-5.1,4.1-5.1,7.7c0,15,0,29.9,0,44.9c0,2.6,1.3,4.5,3,6
		c2.4,2.2,2.7,4.1,0.1,6.6c-3.2,3-4.4,20.8-1.8,24.3c1.8,2.5,2.5-0.3,3.1-1.1c5.4-8,10.8-16,17.1-23.3c0.5-0.6,1.1-1.1,1.6-1.7
		C446.4,368.4,446.8,368.6,447.1,368.9z"/>
</g>
</svg>
